<svg width="734" height="640" viewBox="0 0 734 640" fill="none" xmlns="http://www.w3.org/2000/svg" xmlns:xlink="http://www.w3.org/1999/xlink">
<rect width="734" height="640" fill="url(#pattern0)"/>
<defs>
<pattern id="pattern0" patternContentUnits="objectBoundingBox" width="1" height="1">
<use xlink:href="#image0" transform="translate(-0.00408719) scale(0.0013624 0.0015625)"/>
</pattern>
<image id="image0" width="740" height="640" xlink:href="img/home.png"/>
</defs>
<path d="M225 532.7L445.8 540.7L515 527V548.7L446.5 568.4L225 557.4V532.7Z" fill="#3595F6" fill-opacity="0.75"/>
<path d="M226 531.7V506.7L446.3 510L516 506.7V526.7L446.7 539.7L226 531.7Z" fill="#3595F6" fill-opacity="0.75"/>
<path d="M226 505.7V480.7H447H516V503.7L448 510.7L226 505.7Z" fill="#3595F6" fill-opacity="0.75"/>
<path d="M226 481.7V456.7L447.3 453L515 459.7V481.7H447" fill="#3595F6" fill-opacity="0.75"/>
<path d="M226 455.7V429.7L447.5 426.4L516 437.4V458.7L447 452L226 455.7Z" fill="#3595F6" fill-opacity="0.75"/>
<path d="M225 428.7V405L446 392.7L517 415.7V437L446 424.7L225 428.7Z" fill="#3595F6" fill-opacity="0.75"/>
<path d="M225 406.7V381.7L447.2 365.4L517 394V414.7L446.7 393L225 406.7Z" fill="#3595F6" fill-opacity="0.75"/>
<path d="M225 381.7V356.7L447.5 336.4L517 373V393.7L445 365L225 381.7Z" fill="#3595F6" fill-opacity="0.75"/>
<path d="M225 355.7V331.7L448 307L517 351V372.7L447.7 334.7L225 355.7Z" fill="#3595F6" fill-opacity="0.75"/>
<path d="M225 330.7V306.7L447.5 278L517 329V349.7L446.7 307.4L225 330.7Z" fill="#3595F6" fill-opacity="0.75"/>
<path d="M224 306.7V282.7L446.3 249.7L517 309V328.7L447 278L224 306.7Z" fill="#3595F6" fill-opacity="0.75"/>
<path d="M225 281.7V257.7L446.2 222.7L516 286.7V307.7L447.3 249.4L225 281.7Z" fill="#3595F6" fill-opacity="0.75"/>
<path d="M225 257.7V232.7L447.3 194.7L516 265V285.7L447 221.7L225 257.7Z" fill="#3595F6" fill-opacity="0.75"/>
<path d="M225 231.7V206.7L445.8 163L516 242V264.7L447 191.4L225 231.7Z" fill="#3595F6" fill-opacity="0.75"/>
<path d="M226 207.7V182.7L446 134.7L516 219.7V242.7L445.3 163.4L226 207.7Z" fill="#3595F6" fill-opacity="0.75"/>
<path d="M225 182.7V157.7L444.8 105.7L516 198V220.7L446.3 134.4L225 182.7Z" fill="#3595F6" fill-opacity="0.75"/>
<path d="M225 157.7V131.7L447 75L516 176.7V197.7L446.7 106L225 157.7Z" fill="#3595F6" fill-opacity="0.75"/>

</svg>
